<svg width="170" height="19" viewBox="0 0 170 19" fill="none" xmlns="http://www.w3.org/2000/svg">
<path d="M9.08528 18.192C7.37328 18.192 5.90128 17.848 4.66928 17.16C3.45328 16.456 2.51728 15.456 1.86128 14.16C1.22128 12.848 0.901284 11.272 0.901284 9.432C0.901284 7.608 1.22128 6.048 1.86128 4.752C2.51728 3.44 3.44528 2.44 4.64528 1.752C5.86128 1.064 7.29328 0.719999 8.94128 0.719999C10.1253 0.719999 11.2133 0.903999 12.2053 1.272C13.2133 1.624 14.0853 2.16 14.8213 2.88L14.0533 4.392C13.2213 3.688 12.4053 3.184 11.6053 2.88C10.8053 2.56 9.91728 2.4 8.94128 2.4C7.00528 2.4 5.51728 3.008 4.47728 4.224C3.45328 5.424 2.94128 7.16 2.94128 9.432C2.94128 11.752 3.46928 13.52 4.52528 14.736C5.58128 15.936 7.11728 16.536 9.13329 16.536C9.96528 16.536 10.7733 16.464 11.5573 16.32C12.3573 16.16 13.0773 15.952 13.7173 15.696L13.2373 16.704V10.656H8.98928V9.096H15.0373V17.016C14.5893 17.256 14.0373 17.464 13.3813 17.64C12.7413 17.816 12.0453 17.952 11.2933 18.048C10.5573 18.144 9.82129 18.192 9.08528 18.192ZM23.88 18V0.912H30.672C32.512 0.912 33.92 1.32 34.896 2.136C35.888 2.952 36.384 4.128 36.384 5.664C36.384 7.136 35.88 8.296 34.872 9.144C33.88 9.976 32.48 10.392 30.672 10.392L32.448 10.056C33.072 10.056 33.608 10.232 34.056 10.584C34.504 10.92 34.864 11.464 35.136 12.216L37.296 18H35.208L33.096 12.312C32.824 11.592 32.448 11.12 31.968 10.896C31.504 10.656 30.88 10.536 30.096 10.536H25.824V18H23.88ZM25.824 8.904H30.504C31.832 8.904 32.816 8.632 33.456 8.088C34.112 7.544 34.44 6.744 34.44 5.688C34.44 4.632 34.12 3.848 33.48 3.336C32.84 2.808 31.848 2.544 30.504 2.544H25.824V8.904ZM45.54 18H43.5L51.012 0.912H52.74L60.252 18H58.236L51.54 2.352H52.26L45.54 18ZM46.692 13.608L47.388 11.976H56.364L57.06 13.608H46.692ZM67.605 18V0.912H69.117L80.013 15.432L79.437 15.576V0.912H81.309V18H79.773L68.901 3.504L69.453 3.336V18H67.605ZM95.7112 18L88.2472 0.912H90.3352L96.9832 16.416H96.1912L102.863 0.912H104.903L97.4392 18H95.7112ZM111.846 18V0.912H113.814V18H111.846ZM122.833 18V0.912H124.801V16.32H133.369V18H122.833ZM140.711 18V0.912H142.679V16.32H151.247V18H140.711ZM158.589 18V0.912H169.389V2.544H160.533V8.496H168.909V10.152H160.533V16.368H169.389V18H158.589Z" fill="black"/>
</svg>
